<svg width="142" height="101" viewBox="0 0 142 101" fill="none" xmlns="http://www.w3.org/2000/svg">
<path d="M71 56C56.635 56 45 44.365 45 30C45 15.635 56.635 4 71 4C85.365 4 97 15.635 97 30C97 44.365 85.365 56 71 56Z" fill="url(#paint0_linear_61_2458)"/>
<path d="M65.8 21.8963C64.3917 23.0663 63.2867 24.6046 62.7017 26.3813C62.3767 27.3346 62.2034 28.3746 62.2034 29.4363V40.9846C62.2034 41.9813 61.4017 42.783 60.405 42.783C59.4084 42.783 58.6067 41.9813 58.6067 40.9846V29.4363C58.6067 25.9263 59.9717 22.7196 62.1817 20.358C63.6984 18.733 65.6267 17.4763 67.7934 16.783C68.9634 16.393 70.155 17.2596 70.155 18.473C70.155 19.253 69.6567 19.9246 68.92 20.1846C67.7717 20.5313 66.71 21.138 65.8 21.8963Z" fill="white"/>
<path d="M85.3 29.3498C85.3434 36.6515 79.4067 42.6965 72.105 42.7615C72.0617 42.7615 71.9967 42.7615 71.9534 42.7615C68.5517 42.7615 65.8 39.9881 65.8 36.5865V29.5231C65.8 29.5015 65.8 29.4581 65.8 29.4365C65.8 25.8831 68.8117 23.0231 72.4084 23.2831C75.4634 23.4998 77.9334 25.9915 78.1284 29.0465C78.2584 31.1481 77.3267 33.0548 75.8317 34.2465C74.6834 35.1781 72.95 34.3115 72.95 32.8381C72.95 32.2965 73.1884 31.7981 73.6 31.4515C74.2067 30.9531 74.575 30.1948 74.5534 29.3715C74.51 28.0281 73.4267 26.9231 72.0834 26.8581C70.5884 26.7931 69.3534 27.9848 69.3534 29.4581C69.3534 29.4798 69.3534 29.5231 69.3534 29.5448V36.4131C69.3534 37.9731 70.6317 39.2515 72.1917 39.2081C72.2134 39.2081 72.2567 39.2081 72.2784 39.2081C77.24 39.0348 81.335 35.0915 81.6817 30.1298C81.9851 25.5148 79.0817 21.5281 74.965 20.1848C74.2284 19.9465 73.7301 19.2748 73.7301 18.5165V18.4515C73.7301 17.2598 74.8784 16.3931 76.0267 16.7615C81.3784 18.4515 85.2567 23.4348 85.3 29.3498Z" fill="white"/>
<circle cx="71" cy="30" r="29" stroke="#FC8621" stroke-width="2"/>
<path d="M11.7161 75.2573V78.7079H4.33333V82.64H10.0309V85.9569H4.33333V93.2326H0V75.2573H11.7161Z" fill="#1E232C"/>
<path d="M20.4095 79.6444C21.2655 79.1361 22.2017 78.8687 23.1914 78.8687V83.523H21.9342C20.784 83.523 19.9013 83.7637 19.2593 84.2719C18.6173 84.7534 18.2963 85.5826 18.2963 86.7596V93.2061H13.963V79.0291H18.2963V81.704C18.8313 80.8481 19.5535 80.1526 20.4095 79.6444Z" fill="#1E232C"/>
<path d="M39.107 79.0288V93.2058H34.7469V90.6379C34.3456 91.4671 33.7304 92.1358 32.928 92.6173C32.1255 93.0988 31.1893 93.3663 30.1193 93.3663C28.4876 93.3663 27.2037 92.8313 26.2407 91.7346C25.2777 90.6379 24.7963 89.1667 24.7963 87.2675V79.0288H29.1296V86.7325C29.1296 87.6955 29.3703 88.4444 29.8786 88.9794C30.3868 89.5144 31.0555 89.7819 31.9115 89.7819C32.7942 89.7819 33.4897 89.5144 33.9979 88.9527C34.5061 88.3909 34.7736 87.5885 34.7736 86.572V79.0288H39.107Z" fill="#1E232C"/>
<path d="M45.9547 89.5679H52.5082V93.2058H41.1934V89.7819L47.2921 82.6399H41.3004V79.0288H52.2674V82.4527L45.9547 89.5679Z" fill="#1E232C"/>
<path d="M58.393 89.5679H64.9465V93.2058H53.6317V89.7819L59.7305 82.6399H53.7655V79.0288H64.7325V82.4527L58.393 89.5679Z" fill="#1E232C"/>
<path d="M76.9033 80.2594C77.8931 80.9816 78.5618 81.9446 78.9363 83.1483V74.4014H80.7284V93.2059H78.9095V89.4075C78.5618 90.6112 77.8931 91.5742 76.8766 92.2964C75.8869 93.0187 74.6832 93.3931 73.2922 93.3931C72.035 93.3931 70.9116 93.0989 69.9219 92.5372C68.9322 91.9487 68.1564 91.1462 67.6215 90.0495C67.0597 88.9796 66.7922 87.7224 66.7922 86.2779C66.7922 84.8335 67.0597 83.5495 67.6215 82.4796C68.1832 81.4096 68.9322 80.5804 69.9219 80.0187C70.9116 79.4569 72.035 79.1627 73.2922 79.1627C74.7099 79.1627 75.9136 79.5372 76.9033 80.2594ZM70.0021 82.2121C69.0659 83.2018 68.5844 84.566 68.5844 86.2779C68.5844 87.9898 69.0659 89.3273 70.0021 90.3438C70.9383 91.3335 72.1955 91.8417 73.747 91.8417C74.7367 91.8417 75.6194 91.601 76.3951 91.1462C77.1708 90.6915 77.8128 90.0495 78.2408 89.1935C78.6955 88.3643 78.9095 87.3746 78.9095 86.2779C78.9095 85.1812 78.6955 84.2182 78.2408 83.3623C77.7861 82.5331 77.1708 81.8643 76.3951 81.4096C75.6194 80.9549 74.7099 80.7141 73.747 80.7141C72.1955 80.7409 70.9383 81.2224 70.0021 82.2121Z" fill="#1E232C"/>
<path d="M84.5267 74.321C84.7675 74.107 85.0885 74 85.4897 74C85.8909 74 86.1852 74.107 86.4259 74.321C86.6666 74.535 86.7736 74.8292 86.7736 75.2037C86.7736 75.5514 86.6666 75.8457 86.4259 76.0597C86.1852 76.3004 85.8642 76.4074 85.4629 76.4074C85.0617 76.4074 84.7675 76.3004 84.5 76.0864C84.2592 75.8724 84.1255 75.5782 84.1255 75.2305C84.1522 74.856 84.286 74.5617 84.5267 74.321ZM86.3724 79.3498V93.2325H84.5802V79.3498H86.3724Z" fill="#1E232C"/>
<path d="M99.6666 80.2593C100.656 80.9815 101.352 81.9445 101.7 83.1482V79.3498H103.465V93.5535C103.465 94.8375 103.198 95.961 102.663 96.9507C102.128 97.9136 101.379 98.6893 100.389 99.2243C99.4259 99.7593 98.3292 100.027 97.072 100.027C95.2531 100.027 93.7819 99.5988 92.6049 98.7161C91.4547 97.8334 90.679 96.6564 90.3313 95.1585H92.1234C92.4177 96.1749 92.9794 96.9774 93.8086 97.5659C94.6378 98.1544 95.681 98.4486 96.965 98.4486C97.8477 98.4486 98.6502 98.2614 99.3724 97.8869C100.095 97.5124 100.656 96.9507 101.084 96.2017C101.512 95.4527 101.7 94.57 101.7 93.5535V89.4075C101.325 90.6112 100.656 91.5741 99.6666 92.2963C98.6769 93.0186 97.4732 93.3931 96.0823 93.3931C94.8251 93.3931 93.7016 93.0988 92.7119 92.5371C91.7222 91.9486 90.9465 91.1461 90.4115 90.0494C89.8498 88.9795 89.5823 87.7223 89.5823 86.2778C89.5823 84.8334 89.8498 83.5494 90.4115 82.4795C90.9732 81.4095 91.7222 80.5803 92.7119 80.0186C93.7016 79.4568 94.8251 79.1626 96.0823 79.1626C97.4732 79.1626 98.6769 79.5371 99.6666 80.2593ZM92.7922 82.212C91.8559 83.2017 91.3745 84.5659 91.3745 86.2778C91.3745 87.9898 91.8559 89.3272 92.7922 90.3437C93.7284 91.3334 94.9856 91.8416 96.537 91.8416C97.5267 91.8416 98.4094 91.6009 99.1852 91.1461C99.9609 90.6914 100.603 90.0494 101.031 89.1935C101.486 88.3642 101.7 87.3745 101.7 86.2778C101.7 85.1811 101.486 84.2182 101.031 83.3622C100.576 82.533 99.9609 81.8642 99.1852 81.4095C98.4094 80.9548 97.5 80.714 96.537 80.714C94.9588 80.7408 93.7284 81.2223 92.7922 82.212Z" fill="#1E232C"/>
<path d="M107.29 74.321C107.531 74.107 107.852 74 108.253 74C108.654 74 108.949 74.107 109.189 74.321C109.43 74.535 109.537 74.8292 109.537 75.2037C109.537 75.5514 109.43 75.8457 109.189 76.0597C108.949 76.2737 108.628 76.3807 108.253 76.3807C107.852 76.3807 107.558 76.2737 107.29 76.0597C107.049 75.8457 106.916 75.5514 106.916 75.2037C106.916 74.856 107.049 74.5617 107.29 74.321ZM109.136 79.3498V93.2325H107.344V79.3498H109.136Z" fill="#1E232C"/>
<path d="M119.3 91.6275V93.2057H117.642C116.305 93.2057 115.315 92.8847 114.646 92.2427C113.977 91.6007 113.656 90.5308 113.656 89.0328V80.8744H111.543V79.3497H113.656V75.8188H115.449V79.3497H119.274V80.9012H115.449V89.0863C115.449 90.076 115.636 90.7448 115.984 91.1193C116.331 91.4937 116.973 91.6542 117.856 91.6542H119.3V91.6275Z" fill="#1E232C"/>
<path d="M131.658 80.2593C132.648 80.9815 133.344 81.9445 133.691 83.1482V79.3498H135.457V93.2326H133.691V89.4075C133.317 90.6112 132.648 91.5741 131.658 92.2963C130.669 93.0186 129.465 93.3931 128.074 93.3931C126.817 93.3931 125.693 93.0988 124.704 92.5371C123.714 91.9486 122.938 91.1461 122.403 90.0494C121.842 88.9795 121.574 87.7223 121.574 86.2778C121.574 84.8334 121.842 83.5494 122.403 82.4795C122.965 81.4095 123.714 80.5803 124.704 80.0186C125.693 79.4568 126.817 79.1626 128.074 79.1626C129.465 79.1626 130.669 79.5371 131.658 80.2593ZM124.784 82.212C123.848 83.2017 123.366 84.5659 123.366 86.2778C123.366 87.9898 123.848 89.3272 124.784 90.3437C125.72 91.3334 126.977 91.8416 128.529 91.8416C129.519 91.8416 130.401 91.6009 131.177 91.1461C131.953 90.6914 132.595 90.0494 133.023 89.1935C133.477 88.3642 133.691 87.3745 133.691 86.2778C133.691 85.1811 133.477 84.2182 133.023 83.3622C132.568 82.533 131.953 81.8642 131.177 81.4095C130.401 80.9548 129.492 80.714 128.529 80.714C126.977 80.7408 125.72 81.2223 124.784 82.212Z" fill="#1E232C"/>
<path d="M141.128 74.4014V93.2059H139.335V74.4014H141.128Z" fill="#1E232C"/>
<defs>
<linearGradient id="paint0_linear_61_2458" x1="45" y1="30" x2="97" y2="30" gradientUnits="userSpaceOnUse">
<stop stop-color="#00C3D4"/>
<stop offset="0.0001"/>
<stop offset="1" stop-color="#131313"/>
</linearGradient>
</defs>
</svg>
